ffmpeg started on 2025-07-16 at 16:21:52
Report written to "D:\Convert\FFMetrics\reports\ssim_report-6.txt"
Log level: 32
Command line:
ffmpeg -hide_banner -nostdin -i "G:\\\xc0\xed\xe8\xec\xe5\\Shiza\\\xcb\xe5\xe3\xe5\xed\xe4\xe0 \xee \xc3\xf0\xe0\xed\xea\xf0\xe5\xf1\xf2\xe5\\[SHIZA Project] Grancrest Senki TV [09] [nDrOiDze & Lizaveta]_HEVC.mkv" -i "G:\\\xc0\xed\xe8\xec\xe5\\Shiza\\\xcb\xe5\xe3\xe5\xed\xe4\xe0 \xee \xc3\xf0\xe0\xed\xea\xf0\xe5\xf1\xf2\xe5\\[SHIZA Project] Grancrest Senki TV [09] [nDrOiDze & Lizaveta].mkv" -lavfi "[0:v]settb=AVTB,setpts=PTS-STARTPTS,format=pix_fmts=yuv420p10,fps=24000/1001,scale=1280:720:flags=bicubic[main];[1:v]settb=AVTB,setpts=PTS-STARTPTS,format=pix_fmts=yuv420p,fps=24000/1001,scale=1280:720:flags=bicubic[ref];[main][ref]ssim=eof_action=endall:stats_file='D\\:/Convert/FFMetrics/logs/ssim_logfile-6.txt'" -f null -
Input #0, matroska,webm, from 'G:\Аниме\Shiza\Легенда о Гранкресте\[SHIZA Project] Grancrest Senki TV [09] [nDrOiDze & Lizaveta]_HEVC.mkv':
  Metadata:
    ENCODER         : Lavf61.7.100
  Duration: 00:23:40.07, start: 0.000000, bitrate: 679 kb/s
  Stream #0:0: Video: hevc (Main 10), yuv420p10le(tv, bt709, progressive), 1280x720 [SAR 1:1 DAR 16:9], 23.81 fps, 23.81 tbr, 1k tbn (default)
      Metadata:
        title           : [SHIZA Project] Grancrest Senki TV [WEBRip]
        ENCODER         : Lavc61.19.100 libx265
        BPS             : 481057
        DURATION        : 00:23:40.062000000
        NUMBER_OF_FRAMES: 34048
        NUMBER_OF_BYTES : 85391452
        _STATISTICS_WRITING_APP: mkvpropedit v66.0.0 ('Josie') 64-bit
        _STATISTICS_WRITING_DATE_UTC: 2025-07-14 09:12:51
        _STATISTICS_TAGS: BPS DURATION NUMBER_OF_FRAMES NUMBER_OF_BYTES
  Stream #0:1(rus): Audio: aac (LC), 48000 Hz, stereo, fltp (default)
      Metadata:
        title           : nDrOiDze & Lizaveta
        ENCODER         : Lavc61.19.100 aac
        BPS             : 194407
        DURATION        : 00:23:40.032000000
        NUMBER_OF_FRAMES: 66562
        NUMBER_OF_BYTES : 34508106
        _STATISTICS_WRITING_APP: mkvpropedit v66.0.0 ('Josie') 64-bit
        _STATISTICS_WRITING_DATE_UTC: 2025-07-14 09:12:51
        _STATISTICS_TAGS: BPS DURATION NUMBER_OF_FRAMES NUMBER_OF_BYTES
Input #1, matroska,webm, from 'G:\Аниме\Shiza\Легенда о Гранкресте\[SHIZA Project] Grancrest Senki TV [09] [nDrOiDze & Lizaveta].mkv':
  Metadata:
    encoder         : libebml v1.3.4 + libmatroska v1.4.5
    creation_time   : 2018-03-09T17:22:37.000000Z
  Duration: 00:23:40.05, start: 0.000000, bitrate: 1942 kb/s
  Stream #1:0: Video: h264 (High), yuv420p(progressive), 1280x720 [SAR 1:1 DAR 16:9], 23.81 fps, 23.81 tbr, 1k tbn (default)
      Metadata:
        title           : [SHIZA Project] Grancrest Senki TV [WEBRip]
        BPS             : 1773184
        BPS-eng         : 1773184
        DURATION        : 00:23:40.045000000
        DURATION-eng    : 00:23:40.045000000
        NUMBER_OF_FRAMES: 34048
        NUMBER_OF_FRAMES-eng: 34048
        NUMBER_OF_BYTES : 314750167
        NUMBER_OF_BYTES-eng: 314750167
        _STATISTICS_WRITING_APP: mkvmerge v11.0.0 ('Alive') 64bit
        _STATISTICS_WRITING_APP-eng: mkvmerge v11.0.0 ('Alive') 64bit
        _STATISTICS_WRITING_DATE_UTC: 2018-03-09 17:22:37
        _STATISTICS_WRITING_DATE_UTC-eng: 2018-03-09 17:22:37
        _STATISTICS_TAGS: BPS DURATION NUMBER_OF_FRAMES NUMBER_OF_BYTES
        _STATISTICS_TAGS-eng: BPS DURATION NUMBER_OF_FRAMES NUMBER_OF_BYTES
  Stream #1:1(rus): Audio: aac (LC), 48000 Hz, stereo, fltp (default)
      Metadata:
        title           : nDrOiDze & Lizaveta
        BPS             : 165412
        BPS-eng         : 165412
        DURATION        : 00:23:40.053000000
        DURATION-eng    : 00:23:40.053000000
        NUMBER_OF_FRAMES: 66562
        NUMBER_OF_FRAMES-eng: 66562
        NUMBER_OF_BYTES : 29361874
        NUMBER_OF_BYTES-eng: 29361874
        _STATISTICS_WRITING_APP: mkvmerge v11.0.0 ('Alive') 64bit
        _STATISTICS_WRITING_APP-eng: mkvmerge v11.0.0 ('Alive') 64bit
        _STATISTICS_WRITING_DATE_UTC: 2018-03-09 17:22:37
        _STATISTICS_WRITING_DATE_UTC-eng: 2018-03-09 17:22:37
        _STATISTICS_TAGS: BPS DURATION NUMBER_OF_FRAMES NUMBER_OF_BYTES
        _STATISTICS_TAGS-eng: BPS DURATION NUMBER_OF_FRAMES NUMBER_OF_BYTES
  Stream #1:2: Attachment: ttf
      Metadata:
        filename        : OpenSans-Semibold.ttf
        mimetype        : application/x-truetype-font
Stream mapping:
  Stream #0:0 (hevc) -> settb:default
  Stream #1:0 (h264) -> settb:default
  ssim:default -> Stream #0:0 (wrapped_avframe)
  Stream #0:1 -> #0:1 (aac (native) -> pcm_s16le (native))
[swscaler @ 000002a833371300] No accelerated colorspace conversion found from yuv420p to bgr48le.
[swscaler @ 000002a83344a9c0] No accelerated colorspace conversion found from yuv420p to bgr48le.
[swscaler @ 000002a833657400] No accelerated colorspace conversion found from yuv420p to bgr48le.
[swscaler @ 000002a8336f9300] No accelerated colorspace conversion found from yuv420p to bgr48le.
[swscaler @ 000002a83388c940] No accelerated colorspace conversion found from yuv420p to bgr48le.
[swscaler @ 000002a83399f5c0] No accelerated colorspace conversion found from yuv420p to bgr48le.
[swscaler @ 000002a833b57ac0] No accelerated colorspace conversion found from yuv420p to bgr48le.
[swscaler @ 000002a833bb8740] No accelerated colorspace conversion found from yuv420p to bgr48le.
[swscaler @ 000002a833d2c7c0] No accelerated colorspace conversion found from yuv420p to bgr48le.
[swscaler @ 000002a833d98040] No accelerated colorspace conversion found from yuv420p to bgr48le.
[swscaler @ 000002a833dfb040] No accelerated colorspace conversion found from yuv420p to bgr48le.
[swscaler @ 000002a833e84040] No accelerated colorspace conversion found from yuv420p to bgr48le.
[swscaler @ 000002a833edf040] No accelerated colorspace conversion found from yuv420p to bgr48le.
[swscaler @ 000002a833f0d8c0] No accelerated colorspace conversion found from yuv420p to bgr48le.
[swscaler @ 000002a838515040] No accelerated colorspace conversion found from yuv420p to bgr48le.
[swscaler @ 000002a8385a9040] No accelerated colorspace conversion found from yuv420p to bgr48le.
Output #0, null, to 'pipe:':
  Metadata:
    encoder         : Lavf61.7.100
  Stream #0:0: Video: wrapped_avframe, yuv420p10le(tv, bt709, progressive), 1280x720 [SAR 1:1 DAR 16:9], q=2-31, 200 kb/s, 23.98 fps, 23.98 tbn
      Metadata:
        encoder         : Lavc61.19.100 wrapped_avframe
  Stream #0:1(rus): Audio: pcm_s16le, 48000 Hz, stereo, s16, 1536 kb/s (default)
      Metadata:
        title           : nDrOiDze & Lizaveta
        _STATISTICS_TAGS: BPS DURATION NUMBER_OF_FRAMES NUMBER_OF_BYTES
        BPS             : 194407
        DURATION        : 00:23:40.032000000
        NUMBER_OF_FRAMES: 66562
        NUMBER_OF_BYTES : 34508106
        _STATISTICS_WRITING_APP: mkvpropedit v66.0.0 ('Josie') 64-bit
        _STATISTICS_WRITING_DATE_UTC: 2025-07-14 09:12:51
        encoder         : Lavc61.19.100 pcm_s16le
frame=   78 fps=0.0 q=-0.0 size=N/A time=00:00:03.25 bitrate=N/A speed=6.37x    frame=  178 fps=175 q=-0.0 size=N/A time=00:00:07.42 bitrate=N/A speed=7.29x    frame=  280 fps=181 q=-0.0 size=N/A time=00:00:11.67 bitrate=N/A speed=7.57x    frame=  381 fps=186 q=-0.0 size=N/A time=00:00:15.89 bitrate=N/A speed=7.74x    frame=  482 fps=187 q=-0.0 size=N/A time=00:00:20.10 bitrate=N/A speed=7.81x    frame=  581 fps=189 q=-0.0 size=N/A time=00:00:24.23 bitrate=N/A speed=7.86x    frame=  687 fps=191 q=-0.0 size=N/A time=00:00:28.65 bitrate=N/A speed=7.95x    frame=  782 fps=190 q=-0.0 size=N/A time=00:00:32.61 bitrate=N/A speed=7.93x    frame=  888 fps=191 q=-0.0 size=N/A time=00:00:37.03 bitrate=N/A speed=7.99x    frame=  990 fps=192 q=-0.0 size=N/A time=00:00:41.29 bitrate=N/A speed=   8x    frame= 1092 fps=192 q=-0.0 size=N/A time=00:00:45.54 bitrate=N/A speed=8.02x    frame= 1192 fps=193 q=-0.0 size=N/A time=00:00:49.71 bitrate=N/A speed=8.03x    frame= 1295 fps=193 q=-0.0 size=N/A time=00:00:54.01 bitrate=N/A speed=8.04x    frame= 1396 fps=193 q=-0.0 size=N/A time=00:00:58.22 bitrate=N/A speed=8.05x    frame= 1497 fps=193 q=-0.0 size=N/A time=00:01:02.43 bitrate=N/A speed=8.05x    frame= 1600 fps=193 q=-0.0 size=N/A time=00:01:06.73 bitrate=N/A speed=8.06x    frame= 1698 fps=193 q=-0.0 size=N/A time=00:01:10.82 bitrate=N/A speed=8.06x    frame= 1796 fps=193 q=-0.0 size=N/A time=00:01:14.90 bitrate=N/A speed=8.05x    frame= 1902 fps=194 q=-0.0 size=N/A time=00:01:19.32 bitrate=N/A speed=8.08x    frame= 2002 fps=194 q=-0.0 size=N/A time=00:01:23.50 bitrate=N/A speed=8.07x    frame= 2104 fps=194 q=-0.0 size=N/A time=00:01:27.75 bitrate=N/A speed=8.09x    frame= 2207 fps=194 q=-0.0 size=N/A time=00:01:32.05 bitrate=N/A speed=8.09x    frame= 2297 fps=193 q=-0.0 size=N/A time=00:01:35.80 bitrate=N/A speed=8.06x    frame= 2413 fps=194 q=-0.0 size=N/A time=00:01:40.64 bitrate=N/A speed=8.11x    frame= 2499 fps=193 q=-0.0 size=N/A time=00:01:44.22 bitrate=N/A speed=8.07x    frame= 2599 fps=193 q=-0.0 size=N/A time=00:01:48.39 bitrate=N/A speed=8.07x    frame= 2711 fps=194 q=-0.0 size=N/A time=00:01:53.07 bitrate=N/A speed= 8.1x    frame= 2809 fps=194 q=-0.0 size=N/A time=00:01:57.15 bitrate=N/A speed=8.09x    frame= 2916 fps=194 q=-0.0 size=N/A time=00:02:01.62 bitrate=N/A speed= 8.1x    frame= 3008 fps=194 q=-0.0 size=N/A time=00:02:05.45 bitrate=N/A speed=8.08x    frame= 3118 fps=194 q=-0.0 size=N/A time=00:02:10.04 bitrate=N/A speed=8.11x    frame= 3218 fps=194 q=-0.0 size=N/A time=00:02:14.21 bitrate=N/A speed=8.11x    frame= 3314 fps=194 q=-0.0 size=N/A time=00:02:18.22 bitrate=N/A speed= 8.1x    frame= 3412 fps=194 q=-0.0 size=N/A time=00:02:22.30 bitrate=N/A speed=8.09x    frame= 3510 fps=194 q=-0.0 size=N/A time=00:02:26.39 bitrate=N/A speed=8.09x    frame= 3609 fps=194 q=-0.0 size=N/A time=00:02:30.52 bitrate=N/A speed=8.08x    frame= 3709 fps=194 q=-0.0 size=N/A time=00:02:34.69 bitrate=N/A speed=8.09x    frame= 3813 fps=194 q=-0.0 size=N/A time=00:02:39.03 bitrate=N/A speed=8.09x    frame= 3909 fps=194 q=-0.0 size=N/A time=00:02:43.03 bitrate=N/A speed=8.09x    frame= 4003 fps=194 q=-0.0 size=N/A time=00:02:46.95 bitrate=N/A speed=8.07x    frame= 4111 fps=194 q=-0.0 size=N/A time=00:02:51.46 bitrate=N/A speed=8.09x    frame= 4213 fps=194 q=-0.0 size=N/A time=00:02:55.71 bitrate=N/A speed=8.09x    frame= 4311 fps=194 q=-0.0 size=N/A time=00:02:59.80 bitrate=N/A speed=8.09x    frame= 4407 fps=194 q=-0.0 size=N/A time=00:03:03.80 bitrate=N/A speed=8.08x    frame= 4497 fps=193 q=-0.0 size=N/A time=00:03:07.56 bitrate=N/A speed=8.07x    frame= 4609 fps=194 q=-0.0 size=N/A time=00:03:12.23 bitrate=N/A speed=8.08x    frame= 4697 fps=193 q=-0.0 size=N/A time=00:03:15.90 bitrate=N/A speed=8.07x    frame= 4809 fps=194 q=-0.0 size=N/A time=00:03:20.57 bitrate=N/A speed=8.08x    frame= 4903 fps=194 q=-0.0 size=N/A time=00:03:24.49 bitrate=N/A speed=8.08x    frame= 5003 fps=194 q=-0.0 size=N/A time=00:03:28.66 bitrate=N/A speed=8.08x    frame= 5102 fps=194 q=-0.0 size=N/A time=00:03:32.79 bitrate=N/A speed=8.07x    frame= 5202 fps=194 q=-0.0 size=N/A time=00:03:36.96 bitrate=N/A speed=8.07x    frame= 5303 fps=194 q=-0.0 size=N/A time=00:03:41.17 bitrate=N/A speed=8.08x    frame= 5396 fps=193 q=-0.0 size=N/A time=00:03:45.05 bitrate=N/A speed=8.07x    frame= 5495 fps=193 q=-0.0 size=N/A time=00:03:49.18 bitrate=N/A speed=8.06x    frame= 5599 fps=194 q=-0.0 size=N/A time=00:03:53.52 bitrate=N/A speed=8.07x    frame= 5699 fps=194 q=-0.0 size=N/A time=00:03:57.69 bitrate=N/A speed=8.07x    frame= 5796 fps=193 q=-0.0 size=N/A time=00:04:01.74 bitrate=N/A speed=8.07x    frame= 5896 fps=193 q=-0.0 size=N/A time=00:04:05.91 bitrate=N/A speed=8.07x    frame= 5997 fps=193 q=-0.0 size=N/A time=00:04:10.12 bitrate=N/A speed=8.07x    frame= 6090 fps=193 q=-0.0 size=N/A time=00:04:14.00 bitrate=N/A speed=8.06x    frame= 6195 fps=193 q=-0.0 size=N/A time=00:04:18.38 bitrate=N/A speed=8.07x    frame= 6293 fps=193 q=-0.0 size=N/A time=00:04:22.47 bitrate=N/A speed=8.07x    frame= 6391 fps=193 q=-0.0 size=N/A time=00:04:26.55 bitrate=N/A speed=8.06x    frame= 6492 fps=193 q=-0.0 size=N/A time=00:04:30.77 bitrate=N/A speed=8.07x    frame= 6591 fps=193 q=-0.0 size=N/A time=00:04:34.89 bitrate=N/A speed=8.07x    frame= 6692 fps=193 q=-0.0 size=N/A time=00:04:39.11 bitrate=N/A speed=8.07x    frame= 6791 fps=193 q=-0.0 size=N/A time=00:04:43.28 bitrate=N/A speed=8.07x    frame= 6891 fps=193 q=-0.0 size=N/A time=00:04:47.41 bitrate=N/A speed=8.06x    frame= 6992 fps=193 q=-0.0 size=N/A time=00:04:51.62 bitrate=N/A speed=8.07x    frame= 7092 fps=193 q=-0.0 size=N/A time=00:04:55.79 bitrate=N/A speed=8.07x    frame= 7192 fps=193 q=-0.0 size=N/A time=00:04:59.96 bitrate=N/A speed=8.07x    frame= 7288 fps=193 q=-0.0 size=N/A time=00:05:03.97 bitrate=N/A speed=8.06x    frame= 7395 fps=194 q=-0.0 size=N/A time=00:05:08.43 bitrate=N/A speed=8.07x    frame= 7496 fps=194 q=-0.0 size=N/A time=00:05:12.64 bitrate=N/A speed=8.07x    frame= 7587 fps=193 q=-0.0 size=N/A time=00:05:16.44 bitrate=N/A speed=8.06x    frame= 7700 fps=194 q=-0.0 size=N/A time=00:05:21.15 bitrate=N/A speed=8.08x    frame= 7794 fps=194 q=-0.0 size=N/A time=00:05:25.07 bitrate=N/A speed=8.07x    frame= 7894 fps=194 q=-0.0 size=N/A time=00:05:29.24 bitrate=N/A speed=8.07x    frame= 8000 fps=194 q=-0.0 size=N/A time=00:05:33.66 bitrate=N/A speed=8.08x    frame= 8103 fps=194 q=-0.0 size=N/A time=00:05:37.96 bitrate=N/A speed=8.08x    frame= 8202 fps=194 q=-0.0 size=N/A time=00:05:42.09 bitrate=N/A speed=8.08x    frame= 8295 fps=194 q=-0.0 size=N/A time=00:05:45.97 bitrate=N/A speed=8.07x    frame= 8393 fps=194 q=-0.0 size=N/A time=00:05:50.05 bitrate=N/A speed=8.07x    frame= 8483 fps=193 q=-0.0 size=N/A time=00:05:53.81 bitrate=N/A speed=8.06x    frame= 8591 fps=193 q=-0.0 size=N/A time=00:05:58.31 bitrate=N/A speed=8.07x    frame= 8686 fps=193 q=-0.0 size=N/A time=00:06:02.27 bitrate=N/A speed=8.07x    frame= 8787 fps=193 q=-0.0 size=N/A time=00:06:06.49 bitrate=N/A speed=8.07x    frame= 8883 fps=193 q=-0.0 size=N/A time=00:06:10.49 bitrate=N/A speed=8.06x    frame= 8984 fps=193 q=-0.0 size=N/A time=00:06:14.70 bitrate=N/A speed=8.07x    frame= 9084 fps=193 q=-0.0 size=N/A time=00:06:18.87 bitrate=N/A speed=8.07x    frame= 9183 fps=193 q=-0.0 size=N/A time=00:06:23.00 bitrate=N/A speed=8.06x    frame= 9277 fps=193 q=-0.0 size=N/A time=00:06:26.92 bitrate=N/A speed=8.06x    frame= 9385 fps=193 q=-0.0 size=N/A time=00:06:31.43 bitrate=N/A speed=8.07x    frame= 9483 fps=193 q=-0.0 size=N/A time=00:06:35.52 bitrate=N/A speed=8.06x    frame= 9580 fps=193 q=-0.0 size=N/A time=00:06:39.56 bitrate=N/A speed=8.06x    frame= 9689 fps=193 q=-0.0 size=N/A time=00:06:44.11 bitrate=N/A speed=8.07x    frame= 9786 fps=193 q=-0.0 size=N/A time=00:06:48.15 bitrate=N/A speed=8.07x    frame= 9892 fps=194 q=-0.0 size=N/A time=00:06:52.57 bitrate=N/A speed=8.07x    frame= 9989 fps=194 q=-0.0 size=N/A time=00:06:56.62 bitrate=N/A speed=8.07x    frame=10088 fps=194 q=-0.0 size=N/A time=00:07:00.75 bitrate=N/A speed=8.07x    frame=10185 fps=193 q=-0.0 size=N/A time=00:07:04.79 bitrate=N/A speed=8.07x    frame=10279 fps=193 q=-0.0 size=N/A time=00:07:08.71 bitrate=N/A speed=8.06x    frame=10375 fps=193 q=-0.0 size=N/A time=00:07:12.72 bitrate=N/A speed=8.06x    frame=10474 fps=193 q=-0.0 size=N/A time=00:07:16.85 bitrate=N/A speed=8.06x    frame=10575 fps=193 q=-0.0 size=N/A time=00:07:21.06 bitrate=N/A speed=8.06x    frame=10670 fps=193 q=-0.0 size=N/A time=00:07:25.02 bitrate=N/A speed=8.06x    frame=10776 fps=193 q=-0.0 size=N/A time=00:07:29.44 bitrate=N/A speed=8.06x    frame=10879 fps=193 q=-0.0 size=N/A time=00:07:33.74 bitrate=N/A speed=8.07x    frame=10984 fps=193 q=-0.0 size=N/A time=00:07:38.12 bitrate=N/A speed=8.07x    frame=11084 fps=193 q=-0.0 size=N/A time=00:07:42.29 bitrate=N/A speed=8.07x    frame=11186 fps=194 q=-0.0 size=N/A time=00:07:46.54 bitrate=N/A speed=8.07x    frame=11280 fps=193 q=-0.0 size=N/A time=00:07:50.47 bitrate=N/A speed=8.07x    frame=11389 fps=194 q=-0.0 size=N/A time=00:07:55.01 bitrate=N/A speed=8.07x    frame=11483 fps=193 q=-0.0 size=N/A time=00:07:58.93 bitrate=N/A speed=8.07x    frame=11595 fps=194 q=-0.0 size=N/A time=00:08:03.60 bitrate=N/A speed=8.08x    frame=11692 fps=194 q=-0.0 size=N/A time=00:08:07.65 bitrate=N/A speed=8.08x    frame=11794 fps=194 q=-0.0 size=N/A time=00:08:11.90 bitrate=N/A speed=8.08x    frame=11892 fps=194 q=-0.0 size=N/A time=00:08:15.99 bitrate=N/A speed=8.07x    frame=11990 fps=194 q=-0.0 size=N/A time=00:08:20.08 bitrate=N/A speed=8.08x    frame=12089 fps=194 q=-0.0 size=N/A time=00:08:24.21 bitrate=N/A speed=8.07x    frame=12187 fps=194 q=-0.0 size=N/A time=00:08:28.29 bitrate=N/A speed=8.07x    frame=12285 fps=194 q=-0.0 size=N/A time=00:08:32.38 bitrate=N/A speed=8.07x    frame=12399 fps=194 q=-0.0 size=N/A time=00:08:37.14 bitrate=N/A speed=8.08x    frame=12501 fps=194 q=-0.0 size=N/A time=00:08:41.39 bitrate=N/A speed=8.08x    frame=12603 fps=194 q=-0.0 size=N/A time=00:08:45.65 bitrate=N/A speed=8.08x    frame=12701 fps=194 q=-0.0 size=N/A time=00:08:49.73 bitrate=N/A speed=8.08x    frame=12802 fps=194 q=-0.0 size=N/A time=00:08:53.95 bitrate=N/A speed=8.08x    frame=12900 fps=194 q=-0.0 size=N/A time=00:08:58.03 bitrate=N/A speed=8.08x    frame=12989 fps=194 q=-0.0 size=N/A time=00:09:01.74 bitrate=N/A speed=8.07x    frame=13104 fps=194 q=-0.0 size=N/A time=00:09:06.54 bitrate=N/A speed=8.08x    frame=13206 fps=194 q=-0.0 size=N/A time=00:09:10.80 bitrate=N/A speed=8.09x    frame=13300 fps=194 q=-0.0 size=N/A time=00:09:14.72 bitrate=N/A speed=8.08x    frame=13408 fps=194 q=-0.0 size=N/A time=00:09:19.22 bitrate=N/A speed=8.09x    frame=13508 fps=194 q=-0.0 size=N/A time=00:09:23.39 bitrate=N/A speed=8.09x    frame=13611 fps=194 q=-0.0 size=N/A time=00:09:27.69 bitrate=N/A speed=8.09x    frame=13704 fps=194 q=-0.0 size=N/A time=00:09:31.57 bitrate=N/A speed=8.08x    frame=13808 fps=194 q=-0.0 size=N/A time=00:09:35.90 bitrate=N/A speed=8.09x    frame=13909 fps=194 q=-0.0 size=N/A time=00:09:40.12 bitrate=N/A speed=8.09x    frame=13999 fps=194 q=-0.0 size=N/A time=00:09:43.87 bitrate=N/A speed=8.08x    frame=14098 fps=194 q=-0.0 size=N/A time=00:09:48.00 bitrate=N/A speed=8.08x    frame=14196 fps=194 q=-0.0 size=N/A time=00:09:52.09 bitrate=N/A speed=8.08x    frame=14299 fps=194 q=-0.0 size=N/A time=00:09:56.38 bitrate=N/A speed=8.08x    frame=14395 fps=194 q=-0.0 size=N/A time=00:10:00.39 bitrate=N/A speed=8.08x    frame=14494 fps=194 q=-0.0 size=N/A time=00:10:04.52 bitrate=N/A speed=8.08x    frame=14597 fps=194 q=-0.0 size=N/A time=00:10:08.81 bitrate=N/A speed=8.08x    frame=14692 fps=194 q=-0.0 size=N/A time=00:10:12.77 bitrate=N/A speed=8.08x    frame=14791 fps=194 q=-0.0 size=N/A time=00:10:16.90 bitrate=N/A speed=8.08x    frame=14887 fps=194 q=-0.0 size=N/A time=00:10:20.91 bitrate=N/A speed=8.08x    frame=14989 fps=194 q=-0.0 size=N/A time=00:10:25.16 bitrate=N/A speed=8.08x    frame=15087 fps=194 q=-0.0 size=N/A time=00:10:29.25 bitrate=N/A speed=8.08x    frame=15187 fps=194 q=-0.0 size=N/A time=00:10:33.42 bitrate=N/A speed=8.08x    frame=15283 fps=194 q=-0.0 size=N/A time=00:10:37.42 bitrate=N/A speed=8.07x    frame=15384 fps=194 q=-0.0 size=N/A time=00:10:41.64 bitrate=N/A speed=8.07x    frame=15483 fps=194 q=-0.0 size=N/A time=00:10:45.77 bitrate=N/A speed=8.07x    frame=15585 fps=194 q=-0.0 size=N/A time=00:10:50.02 bitrate=N/A speed=8.07x    frame=15670 fps=193 q=-0.0 size=N/A time=00:10:53.56 bitrate=N/A speed=8.07x    frame=15777 fps=194 q=-0.0 size=N/A time=00:10:58.03 bitrate=N/A speed=8.07x    frame=15891 fps=194 q=-0.0 size=N/A time=00:11:02.78 bitrate=N/A speed=8.08x    frame=15991 fps=194 q=-0.0 size=N/A time=00:11:06.95 bitrate=N/A speed=8.08x    frame=16091 fps=194 q=-0.0 size=N/A time=00:11:11.12 bitrate=N/A speed=8.08x    frame=16197 fps=194 q=-0.0 size=N/A time=00:11:15.54 bitrate=N/A speed=8.08x    frame=16294 fps=194 q=-0.0 size=N/A time=00:11:19.59 bitrate=N/A speed=8.08x    frame=16398 fps=194 q=-0.0 size=N/A time=00:11:23.93 bitrate=N/A speed=8.08x    frame=16501 fps=194 q=-0.0 size=N/A time=00:11:28.22 bitrate=N/A speed=8.08x    frame=16604 fps=194 q=-0.0 size=N/A time=00:11:32.52 bitrate=N/A speed=8.08x    frame=16703 fps=194 q=-0.0 size=N/A time=00:11:36.65 bitrate=N/A speed=8.08x    frame=16807 fps=194 q=-0.0 size=N/A time=00:11:40.99 bitrate=N/A speed=8.09x    frame=16907 fps=194 q=-0.0 size=N/A time=00:11:45.16 bitrate=N/A speed=8.09x    frame=17007 fps=194 q=-0.0 size=N/A time=00:11:49.33 bitrate=N/A speed=8.09x    frame=17106 fps=194 q=-0.0 size=N/A time=00:11:53.46 bitrate=N/A speed=8.09x    frame=17216 fps=194 q=-0.0 size=N/A time=00:11:58.05 bitrate=N/A speed=8.09x    frame=17316 fps=194 q=-0.0 size=N/A time=00:12:02.22 bitrate=N/A speed=8.09x    frame=17418 fps=194 q=-0.0 size=N/A time=00:12:06.47 bitrate=N/A speed=8.09x    frame=17515 fps=194 q=-0.0 size=N/A time=00:12:10.52 bitrate=N/A speed=8.09x    frame=17617 fps=194 q=-0.0 size=N/A time=00:12:14.77 bitrate=N/A speed=8.09x    frame=17723 fps=194 q=-0.0 size=N/A time=00:12:19.19 bitrate=N/A speed=8.09x    frame=17821 fps=194 q=-0.0 size=N/A time=00:12:23.28 bitrate=N/A speed=8.09x    frame=17923 fps=194 q=-0.0 size=N/A time=00:12:27.53 bitrate=N/A speed=8.09x    frame=18027 fps=194 q=-0.0 size=N/A time=00:12:31.87 bitrate=N/A speed=8.09x    frame=18128 fps=194 q=-0.0 size=N/A time=00:12:36.08 bitrate=N/A speed= 8.1x    frame=18226 fps=194 q=-0.0 size=N/A time=00:12:40.17 bitrate=N/A speed=8.09x    frame=18332 fps=194 q=-0.0 size=N/A time=00:12:44.59 bitrate=N/A speed= 8.1x    frame=18431 fps=194 q=-0.0 size=N/A time=00:12:48.72 bitrate=N/A speed= 8.1x    frame=18530 fps=194 q=-0.0 size=N/A time=00:12:52.85 bitrate=N/A speed= 8.1x    frame=18638 fps=194 q=-0.0 size=N/A time=00:12:57.35 bitrate=N/A speed= 8.1x    frame=18739 fps=194 q=-0.0 size=N/A time=00:13:01.57 bitrate=N/A speed= 8.1x    frame=18843 fps=194 q=-0.0 size=N/A time=00:13:05.91 bitrate=N/A speed= 8.1x    frame=18941 fps=194 q=-0.0 size=N/A time=00:13:09.99 bitrate=N/A speed= 8.1x    frame=19045 fps=194 q=-0.0 size=N/A time=00:13:14.33 bitrate=N/A speed= 8.1x    frame=19140 fps=194 q=-0.0 size=N/A time=00:13:18.29 bitrate=N/A speed= 8.1x    frame=19242 fps=194 q=-0.0 size=N/A time=00:13:22.55 bitrate=N/A speed= 8.1x    frame=19344 fps=194 q=-0.0 size=N/A time=00:13:26.80 bitrate=N/A speed= 8.1x    frame=19443 fps=194 q=-0.0 size=N/A time=00:13:30.93 bitrate=N/A speed= 8.1x    frame=19537 fps=194 q=-0.0 size=N/A time=00:13:34.85 bitrate=N/A speed= 8.1x    frame=19645 fps=194 q=-0.0 size=N/A time=00:13:39.36 bitrate=N/A speed= 8.1x    frame=19743 fps=194 q=-0.0 size=N/A time=00:13:43.44 bitrate=N/A speed= 8.1x    frame=19842 fps=194 q=-0.0 size=N/A time=00:13:47.57 bitrate=N/A speed= 8.1x    frame=19939 fps=194 q=-0.0 size=N/A time=00:13:51.62 bitrate=N/A speed= 8.1x    frame=20034 fps=194 q=-0.0 size=N/A time=00:13:55.58 bitrate=N/A speed= 8.1x    frame=20129 fps=194 q=-0.0 size=N/A time=00:13:59.54 bitrate=N/A speed=8.09x    frame=20228 fps=194 q=-0.0 size=N/A time=00:14:03.67 bitrate=N/A speed=8.09x    frame=20323 fps=194 q=-0.0 size=N/A time=00:14:07.63 bitrate=N/A speed=8.09x    frame=20420 fps=194 q=-0.0 size=N/A time=00:14:11.68 bitrate=N/A speed=8.09x    frame=20512 fps=194 q=-0.0 size=N/A time=00:14:15.52 bitrate=N/A speed=8.09x    frame=20614 fps=194 q=-0.0 size=N/A time=00:14:19.77 bitrate=N/A speed=8.09x    frame=20706 fps=194 q=-0.0 size=N/A time=00:14:23.61 bitrate=N/A speed=8.09x    frame=20812 fps=194 q=-0.0 size=N/A time=00:14:28.03 bitrate=N/A speed=8.09x    frame=20912 fps=194 q=-0.0 size=N/A time=00:14:32.20 bitrate=N/A speed=8.09x    frame=21011 fps=194 q=-0.0 size=N/A time=00:14:36.33 bitrate=N/A speed=8.09x    frame=21109 fps=194 q=-0.0 size=N/A time=00:14:40.42 bitrate=N/A speed=8.09x    frame=21205 fps=194 q=-0.0 size=N/A time=00:14:44.42 bitrate=N/A speed=8.09x    frame=21311 fps=194 q=-0.0 size=N/A time=00:14:48.84 bitrate=N/A speed=8.09x    frame=21416 fps=194 q=-0.0 size=N/A time=00:14:53.22 bitrate=N/A speed=8.09x    frame=21517 fps=194 q=-0.0 size=N/A time=00:14:57.43 bitrate=N/A speed=8.09x    frame=21619 fps=194 q=-0.0 size=N/A time=00:15:01.69 bitrate=N/A speed=8.09x    frame=21716 fps=194 q=-0.0 size=N/A time=00:15:05.73 bitrate=N/A speed=8.09x    frame=21819 fps=194 q=-0.0 size=N/A time=00:15:10.03 bitrate=N/A speed=8.09x    frame=21921 fps=194 q=-0.0 size=N/A time=00:15:14.28 bitrate=N/A speed=8.09x    frame=22020 fps=194 q=-0.0 size=N/A time=00:15:18.41 bitrate=N/A speed=8.09x    frame=22109 fps=194 q=-0.0 size=N/A time=00:15:22.12 bitrate=N/A speed=8.09x    frame=22221 fps=194 q=-0.0 size=N/A time=00:15:26.80 bitrate=N/A speed=8.09x    frame=22316 fps=194 q=-0.0 size=N/A time=00:15:30.76 bitrate=N/A speed=8.09x    frame=22425 fps=194 q=-0.0 size=N/A time=00:15:35.30 bitrate=N/A speed=8.09x    frame=22522 fps=194 q=-0.0 size=N/A time=00:15:39.35 bitrate=N/A speed=8.09x    frame=22626 fps=194 q=-0.0 size=N/A time=00:15:43.69 bitrate=N/A speed=8.09x    frame=22719 fps=194 q=-0.0 size=N/A time=00:15:47.57 bitrate=N/A speed=8.09x    frame=22830 fps=194 q=-0.0 size=N/A time=00:15:52.20 bitrate=N/A speed=8.09x    frame=22927 fps=194 q=-0.0 size=N/A time=00:15:56.24 bitrate=N/A speed=8.09x    frame=23033 fps=194 q=-0.0 size=N/A time=00:16:00.66 bitrate=N/A speed=8.09x    frame=23138 fps=194 q=-0.0 size=N/A time=00:16:05.04 bitrate=N/A speed= 8.1x    frame=23236 fps=194 q=-0.0 size=N/A time=00:16:09.13 bitrate=N/A speed= 8.1x    frame=23344 fps=194 q=-0.0 size=N/A time=00:16:13.63 bitrate=N/A speed= 8.1x    frame=23444 fps=194 q=-0.0 size=N/A time=00:16:17.81 bitrate=N/A speed= 8.1x    frame=23532 fps=194 q=-0.0 size=N/A time=00:16:21.48 bitrate=N/A speed=8.09x    frame=23644 fps=194 q=-0.0 size=N/A time=00:16:26.15 bitrate=N/A speed= 8.1x    frame=23730 fps=194 q=-0.0 size=N/A time=00:16:29.73 bitrate=N/A speed=8.09x    frame=23836 fps=194 q=-0.0 size=N/A time=00:16:34.15 bitrate=N/A speed= 8.1x    frame=23943 fps=194 q=-0.0 size=N/A time=00:16:38.62 bitrate=N/A speed= 8.1x    frame=24038 fps=194 q=-0.0 size=N/A time=00:16:42.58 bitrate=N/A speed= 8.1x    frame=24143 fps=194 q=-0.0 size=N/A time=00:16:46.96 bitrate=N/A speed= 8.1x    frame=24240 fps=194 q=-0.0 size=N/A time=00:16:51.01 bitrate=N/A speed= 8.1x    frame=24340 fps=194 q=-0.0 size=N/A time=00:16:55.18 bitrate=N/A speed= 8.1x    frame=24454 fps=194 q=-0.0 size=N/A time=00:16:59.93 bitrate=N/A speed= 8.1x    frame=24541 fps=194 q=-0.0 size=N/A time=00:17:03.56 bitrate=N/A speed= 8.1x    frame=24656 fps=194 q=-0.0 size=N/A time=00:17:08.36 bitrate=N/A speed= 8.1x    frame=24756 fps=194 q=-0.0 size=N/A time=00:17:12.53 bitrate=N/A speed= 8.1x    frame=24856 fps=194 q=-0.0 size=N/A time=00:17:16.70 bitrate=N/A speed= 8.1x    frame=24960 fps=194 q=-0.0 size=N/A time=00:17:21.04 bitrate=N/A speed= 8.1x    frame=25060 fps=194 q=-0.0 size=N/A time=00:17:25.21 bitrate=N/A speed= 8.1x    frame=25158 fps=194 q=-0.0 size=N/A time=00:17:29.29 bitrate=N/A speed= 8.1x    frame=25255 fps=194 q=-0.0 size=N/A time=00:17:33.34 bitrate=N/A speed= 8.1x    frame=25363 fps=194 q=-0.0 size=N/A time=00:17:37.84 bitrate=N/A speed= 8.1x    frame=25452 fps=194 q=-0.0 size=N/A time=00:17:41.56 bitrate=N/A speed= 8.1x    frame=25566 fps=194 q=-0.0 size=N/A time=00:17:46.31 bitrate=N/A speed= 8.1x    frame=25667 fps=194 q=-0.0 size=N/A time=00:17:50.52 bitrate=N/A speed= 8.1x    frame=25768 fps=194 q=-0.0 size=N/A time=00:17:54.74 bitrate=N/A speed=8.11x    frame=25865 fps=194 q=-0.0 size=N/A time=00:17:58.78 bitrate=N/A speed= 8.1x    frame=25958 fps=194 q=-0.0 size=N/A time=00:18:02.66 bitrate=N/A speed= 8.1x    frame=26068 fps=194 q=-0.0 size=N/A time=00:18:07.25 bitrate=N/A speed= 8.1x    frame=26168 fps=194 q=-0.0 size=N/A time=00:18:11.42 bitrate=N/A speed= 8.1x    frame=26267 fps=194 q=-0.0 size=N/A time=00:18:15.55 bitrate=N/A speed= 8.1x    frame=26366 fps=194 q=-0.0 size=N/A time=00:18:19.68 bitrate=N/A speed= 8.1x    frame=26471 fps=194 q=-0.0 size=N/A time=00:18:24.06 bitrate=N/A speed=8.11x    frame=26562 fps=194 q=-0.0 size=N/A time=00:18:27.85 bitrate=N/A speed= 8.1x    frame=26662 fps=194 q=-0.0 size=N/A time=00:18:32.02 bitrate=N/A speed= 8.1x    frame=26770 fps=194 q=-0.0 size=N/A time=00:18:36.53 bitrate=N/A speed=8.11x    frame=26870 fps=194 q=-0.0 size=N/A time=00:18:40.70 bitrate=N/A speed= 8.1x    frame=26969 fps=194 q=-0.0 size=N/A time=00:18:44.83 bitrate=N/A speed= 8.1x    frame=27076 fps=194 q=-0.0 size=N/A time=00:18:49.29 bitrate=N/A speed=8.11x    frame=27173 fps=194 q=-0.0 size=N/A time=00:18:53.34 bitrate=N/A speed=8.11x    frame=27273 fps=194 q=-0.0 size=N/A time=00:18:57.51 bitrate=N/A speed=8.11x    frame=27368 fps=194 q=-0.0 size=N/A time=00:19:01.47 bitrate=N/A speed= 8.1x    frame=27476 fps=194 q=-0.0 size=N/A time=00:19:05.97 bitrate=N/A speed=8.11x    frame=27574 fps=194 q=-0.0 size=N/A time=00:19:10.06 bitrate=N/A speed=8.11x    frame=27676 fps=194 q=-0.0 size=N/A time=00:19:14.31 bitrate=N/A speed=8.11x    frame=27774 fps=194 q=-0.0 size=N/A time=00:19:18.40 bitrate=N/A speed=8.11x    frame=27880 fps=194 q=-0.0 size=N/A time=00:19:22.82 bitrate=N/A speed=8.11x    frame=27970 fps=194 q=-0.0 size=N/A time=00:19:26.58 bitrate=N/A speed= 8.1x    frame=28085 fps=194 q=-0.0 size=N/A time=00:19:31.37 bitrate=N/A speed=8.11x    frame=28176 fps=194 q=-0.0 size=N/A time=00:19:35.17 bitrate=N/A speed=8.11x    frame=28287 fps=194 q=-0.0 size=N/A time=00:19:39.80 bitrate=N/A speed=8.11x    frame=28386 fps=194 q=-0.0 size=N/A time=00:19:43.93 bitrate=N/A speed=8.11x    frame=28486 fps=194 q=-0.0 size=N/A time=00:19:48.10 bitrate=N/A speed=8.11x    frame=28592 fps=194 q=-0.0 size=N/A time=00:19:52.52 bitrate=N/A speed=8.11x    frame=28691 fps=194 q=-0.0 size=N/A time=00:19:56.65 bitrate=N/A speed=8.11x    frame=28794 fps=194 q=-0.0 size=N/A time=00:20:00.94 bitrate=N/A speed=8.11x    frame=28891 fps=194 q=-0.0 size=N/A time=00:20:04.99 bitrate=N/A speed=8.11x    frame=28994 fps=194 q=-0.0 size=N/A time=00:20:09.29 bitrate=N/A speed=8.11x    frame=29098 fps=194 q=-0.0 size=N/A time=00:20:13.62 bitrate=N/A speed=8.11x    frame=29198 fps=194 q=-0.0 size=N/A time=00:20:17.79 bitrate=N/A speed=8.11x    frame=29298 fps=194 q=-0.0 size=N/A time=00:20:21.97 bitrate=N/A speed=8.11x    frame=29400 fps=194 q=-0.0 size=N/A time=00:20:26.22 bitrate=N/A speed=8.11x    frame=29503 fps=194 q=-0.0 size=N/A time=00:20:30.52 bitrate=N/A speed=8.11x    frame=29603 fps=195 q=-0.0 size=N/A time=00:20:34.69 bitrate=N/A speed=8.11x    frame=29699 fps=194 q=-0.0 size=N/A time=00:20:38.69 bitrate=N/A speed=8.11x    frame=29805 fps=195 q=-0.0 size=N/A time=00:20:43.11 bitrate=N/A speed=8.11x    frame=29905 fps=195 q=-0.0 size=N/A time=00:20:47.28 bitrate=N/A speed=8.11x    frame=30010 fps=195 q=-0.0 size=N/A time=00:20:51.66 bitrate=N/A speed=8.11x    frame=30111 fps=195 q=-0.0 size=N/A time=00:20:55.87 bitrate=N/A speed=8.11x    frame=30208 fps=195 q=-0.0 size=N/A time=00:20:59.92 bitrate=N/A speed=8.11x    frame=30312 fps=195 q=-0.0 size=N/A time=00:21:04.26 bitrate=N/A speed=8.11x    frame=30410 fps=195 q=-0.0 size=N/A time=00:21:08.35 bitrate=N/A speed=8.11x    frame=30510 fps=195 q=-0.0 size=N/A time=00:21:12.52 bitrate=N/A speed=8.11x    frame=30611 fps=195 q=-0.0 size=N/A time=00:21:16.73 bitrate=N/A speed=8.11x    frame=30714 fps=195 q=-0.0 size=N/A time=00:21:21.02 bitrate=N/A speed=8.11x    frame=30814 fps=195 q=-0.0 size=N/A time=00:21:25.20 bitrate=N/A speed=8.11x    frame=30915 fps=195 q=-0.0 size=N/A time=00:21:29.41 bitrate=N/A speed=8.11x    frame=31015 fps=195 q=-0.0 size=N/A time=00:21:33.58 bitrate=N/A speed=8.11x    frame=31116 fps=195 q=-0.0 size=N/A time=00:21:37.79 bitrate=N/A speed=8.11x    frame=31214 fps=195 q=-0.0 size=N/A time=00:21:41.88 bitrate=N/A speed=8.11x    frame=31320 fps=195 q=-0.0 size=N/A time=00:21:46.30 bitrate=N/A speed=8.11x    frame=31422 fps=195 q=-0.0 size=N/A time=00:21:50.55 bitrate=N/A speed=8.12x    frame=31522 fps=195 q=-0.0 size=N/A time=00:21:54.73 bitrate=N/A speed=8.11x    frame=31622 fps=195 q=-0.0 size=N/A time=00:21:58.90 bitrate=N/A speed=8.12x    frame=31720 fps=195 q=-0.0 size=N/A time=00:22:02.98 bitrate=N/A speed=8.11x    frame=31822 fps=195 q=-0.0 size=N/A time=00:22:07.24 bitrate=N/A speed=8.11x    frame=31923 fps=195 q=-0.0 size=N/A time=00:22:11.45 bitrate=N/A speed=8.11x    frame=32017 fps=195 q=-0.0 size=N/A time=00:22:15.37 bitrate=N/A speed=8.11x    frame=32115 fps=195 q=-0.0 size=N/A time=00:22:19.46 bitrate=N/A speed=8.11x    frame=32209 fps=194 q=-0.0 size=N/A time=00:22:23.38 bitrate=N/A speed=8.11x    frame=32305 fps=194 q=-0.0 size=N/A time=00:22:27.38 bitrate=N/A speed=8.11x    frame=32400 fps=194 q=-0.0 size=N/A time=00:22:31.35 bitrate=N/A speed=8.11x    frame=32492 fps=194 q=-0.0 size=N/A time=00:22:35.18 bitrate=N/A speed=8.11x    frame=32592 fps=194 q=-0.0 size=N/A time=00:22:39.35 bitrate=N/A speed=8.11x    frame=32683 fps=194 q=-0.0 size=N/A time=00:22:43.15 bitrate=N/A speed= 8.1x    frame=32786 fps=194 q=-0.0 size=N/A time=00:22:47.44 bitrate=N/A speed=8.11x    frame=32883 fps=194 q=-0.0 size=N/A time=00:22:51.49 bitrate=N/A speed= 8.1x    frame=32977 fps=194 q=-0.0 size=N/A time=00:22:55.41 bitrate=N/A speed= 8.1x    frame=33076 fps=194 q=-0.0 size=N/A time=00:22:59.54 bitrate=N/A speed= 8.1x    frame=33172 fps=194 q=-0.0 size=N/A time=00:23:03.54 bitrate=N/A speed= 8.1x    frame=33269 fps=194 q=-0.0 size=N/A time=00:23:07.59 bitrate=N/A speed= 8.1x    frame=33370 fps=194 q=-0.0 size=N/A time=00:23:11.80 bitrate=N/A speed= 8.1x    frame=33467 fps=194 q=-0.0 size=N/A time=00:23:15.85 bitrate=N/A speed= 8.1x    frame=33567 fps=194 q=-0.0 size=N/A time=00:23:20.02 bitrate=N/A speed= 8.1x    frame=33661 fps=194 q=-0.0 size=N/A time=00:23:23.94 bitrate=N/A speed= 8.1x    frame=33770 fps=194 q=-0.0 size=N/A time=00:23:28.49 bitrate=N/A speed= 8.1x    frame=33863 fps=194 q=-0.0 size=N/A time=00:23:32.36 bitrate=N/A speed= 8.1x    frame=33966 fps=194 q=-0.0 size=N/A time=00:23:36.66 bitrate=N/A speed= 8.1x    [Parsed_ssim_10 @ 000002a8291eeb40] SSIM Y:0.990688 (20.309773) U:0.993627 (21.956275) V:0.994430 (22.541320) All:0.991802 (20.862758)
[out#0/null @ 000002a82728eec0] video:14630KiB audio:266248KiB subtitle:0KiB other streams:0KiB global headers:0KiB muxing overhead: unknown
frame=34047 fps=194 q=-0.0 Lsize=N/A time=00:23:40.04 bitrate=N/A speed= 8.1x    
